simulation
nRows=74
nColumns=15
endheader
time  TH_x TH_y TH_z SC_y  SC_z  SC_x  AC_y  AC_z  AC_x  GH_y  GH_z  GH_x  EL_x  PS_y
0.750051  0.000000  0.000000  0.000000  -38.260825  -0.364772  -9.061784  70.803857  44.629052  16.877085  -22.571935  24.979647  11.422823  18.088278  125.173194
0.750118  0.000000  0.000000  0.000000  -38.260825  -0.364772  -6.430205  71.605328  42.137697  15.710549  -22.571935  24.979647  11.422823  18.088278  125.173194
0.750186  0.000000  0.000000  0.000000  -38.260825  -0.364772  -3.798626  72.311120  39.635420  14.632558  -22.571935  24.979647  11.422823  18.088278  125.173194
0.750253  0.000000  0.000000  0.000000  -38.260825  -0.364772  -1.167047  72.933729  37.123876  13.630016  -22.571935  24.979647  11.422823  18.088278  125.173194
0.750321  0.000000  0.000000  0.000000  -38.260825  -0.364772  1.464532  73.483421  34.604434  12.692000  -22.571935  24.979647  11.422823  18.088278  125.173194
0.750389  0.000000  0.000000  0.000000  -38.260825  -0.364772  4.096111  73.968695  32.078235  11.809318  -22.571935  24.979647  11.422823  18.088278  125.173194
0.750456  0.000000  0.000000  0.000000  -38.260825  -0.364772  6.727690  74.396559  29.546252  10.974219  -22.571935  24.979647  11.422823  18.088278  125.173194
0.750524  0.000000  0.000000  0.000000  -38.260825  -0.364772  9.359268  74.772922  27.009300  10.179984  -22.571935  24.979647  11.422823  18.088278  125.173194
0.750591  0.000000  0.000000  0.000000  -38.260825  -0.364772  11.990847  75.102681  24.468090  9.420846  -22.571935  24.979647  11.422823  18.088278  125.173194
0.750659  0.000000  0.000000  0.000000  -38.260825  -0.364772  14.622426  75.389885  21.923234  8.691822  -22.571935  24.979647  11.422823  18.088278  125.173194
0.750726  0.000000  0.000000  0.000000  -38.260825  -0.364772  17.254005  75.638015  19.375287  7.988401  -22.571935  24.979647  11.422823  18.088278  125.173194
0.750794  0.000000  0.000000  0.000000  -38.260825  -0.364772  19.885584  75.849866  16.824716  7.306677  -22.571935  24.979647  11.422823  18.088278  125.173194
0.750862  0.000000  0.000000  0.000000  -38.260825  -0.364772  22.517163  76.027783  14.271961  6.643089  -22.571935  24.979647  11.422823  18.088278  125.173194
0.750929  0.000000  0.000000  0.000000  -38.260825  -0.364772  25.148742  76.173695  11.717406  5.994378  -22.571935  24.979647  11.422823  18.088278  125.173194
0.750997  0.000000  0.000000  0.000000  -38.260825  -0.364772  27.780321  76.289114  9.161425  5.357564  -22.571935  24.979647  11.422823  18.088278  125.173194
0.751064  0.000000  0.000000  0.000000  -38.260825  -0.364772  30.411900  76.375222  6.604341  4.729868  -22.571935  24.979647  11.422823  18.088278  125.173194
0.751132  0.000000  0.000000  0.000000  -38.260825  -0.364772  33.043479  76.432896  4.046475  4.108623  -22.571935  24.979647  11.422823  18.088278  125.173194
0.751199  0.000000  0.000000  0.000000  -38.260825  -0.364772  35.675058  76.462708  1.488141  3.491294  -22.571935  24.979647  11.422823  18.088278  125.173194
0.751267  0.000000  0.000000  0.000000  -38.260825  -0.364772  38.306637  76.464955  -1.070362  2.875396  -22.571935  24.979647  11.422823  18.088278  125.173194
0.751335  0.000000  0.000000  0.000000  -38.260825  -0.364772  40.938216  76.439655  -3.628743  2.258466  -22.571935  24.979647  11.422823  18.088278  125.173194
0.751402  0.000000  0.000000  0.000000  -11.818359  -11.371898  -9.061784  71.946744  37.511628  -0.882113  4.801719  33.808433  36.788201  28.648912  121.128965
0.751470  0.000000  0.000000  0.000000  -11.818359  -11.371898  -6.430205  72.535570  35.005369  -1.877453  4.801719  33.808433  36.788201  28.648912  121.128965
0.751537  0.000000  0.000000  0.000000  -11.818359  -11.371898  -3.798626  73.055724  32.491472  -2.813501  4.801719  33.808433  36.788201  28.648912  121.128965
0.751605  0.000000  0.000000  0.000000  -11.818359  -11.371898  -1.167047  73.514742  29.971024  -3.698565  4.801719  33.808433  36.788201  28.648912  121.128965
0.751672  0.000000  0.000000  0.000000  -11.818359  -11.371898  1.464532  73.918915  27.444952  -4.539766  4.801719  33.808433  36.788201  28.648912  121.128965
0.751740  0.000000  0.000000  0.000000  -11.818359  -11.371898  4.096111  74.273495  24.914056  -5.343253  4.801719  33.808433  36.788201  28.648912  121.128965
0.751808  0.000000  0.000000  0.000000  -11.818359  -11.371898  6.727690  74.582860  22.379030  -6.114369  4.801719  33.808433  36.788201  28.648912  121.128965
0.751875  0.000000  0.000000  0.000000  -11.818359  -11.371898  9.359268  74.850694  19.840474  -6.857856  4.801719  33.808433  36.788201  28.648912  121.128965
0.751943  0.000000  0.000000  0.000000  -11.818359  -11.371898  11.990847  75.080075  17.298946  -7.577938  4.801719  33.808433  36.788201  28.648912  121.128965
0.752010  0.000000  0.000000  0.000000  -11.818359  -11.371898  14.622426  75.273505  14.754913  -8.278364  4.801719  33.808433  36.788201  28.648912  121.128965
0.752078  0.000000  0.000000  0.000000  -11.818359  -11.371898  17.254005  75.433064  12.208818  -8.962584  4.801719  33.808433  36.788201  28.648912  121.128965
0.752145  0.000000  0.000000  0.000000  -11.818359  -11.371898  19.885584  75.560413  9.661072  -9.633752  4.801719  33.808433  36.788201  28.648912  121.128965
0.752213  0.000000  0.000000  0.000000  -11.818359  -11.371898  22.517163  75.656857  7.112042  -10.294830  4.801719  33.808433  36.788201  28.648912  121.128965
0.752281  0.000000  0.000000  0.000000  -11.818359  -11.371898  25.148742  75.723363  4.562084  -10.948604  4.801719  33.808433  36.788201  28.648912  121.128965
0.752348  0.000000  0.000000  0.000000  -11.818359  -11.371898  27.780321  75.760590  2.011530  -11.597748  4.801719  33.808433  36.788201  28.648912  121.128965
0.752416  0.000000  0.000000  0.000000  -11.818359  -11.371898  30.411900  75.768907  -0.539260  -12.244863  4.801719  33.808433  36.788201  28.648912  121.128965
0.752483  0.000000  0.000000  0.000000  -11.818359  -11.371898  33.043479  75.748393  -3.089992  -12.892520  4.801719  33.808433  36.788201  28.648912  121.128965
0.752551  0.000000  0.000000  0.000000  -11.818359  -11.371898  35.675058  75.698847  -5.640329  -13.543301  4.801719  33.808433  36.788201  28.648912  121.128965
0.752618  0.000000  0.000000  0.000000  -11.818359  -11.371898  38.306637  75.619779  -8.189933  -14.199833  4.801719  33.808433  36.788201  28.648912  121.128965
0.752686  0.000000  0.000000  0.000000  -11.818359  -11.371898  40.938216  75.510408  -10.738470  -14.864828  4.801719  33.808433  36.788201  28.648912  121.128965
0.752754  0.000000  0.000000  0.000000  -13.960579  14.715279  -9.061784  53.300551  25.485537  23.844490  13.699057  25.389392  33.295213  15.200103  133.877894
0.752821  0.000000  0.000000  0.000000  -13.960579  14.715279  -6.430205  54.008974  23.365731  22.131673  13.699057  25.389392  33.295213  15.200103  133.877894
0.752889  0.000000  0.000000  0.000000  -13.960579  14.715279  -3.798626  54.638442  21.227874  20.472983  13.699057  25.389392  33.295213  15.200103  133.877894
0.752956  0.000000  0.000000  0.000000  -13.960579  14.715279  -1.167047  55.193599  19.074276  18.861874  13.699057  25.389392  33.295213  15.200103  133.877894
0.753024  0.000000  0.000000  0.000000  -13.960579  14.715279  1.464532  55.678511  16.907046  17.292252  13.699057  25.389392  33.295213  15.200103  133.877894
0.753091  0.000000  0.000000  0.000000  -13.960579  14.715279  4.096111  56.096694  14.728124  15.758421  13.699057  25.389392  33.295213  15.200103  133.877894
0.753159  0.000000  0.000000  0.000000  -13.960579  14.715279  6.727690  56.451150  12.539308  14.255033  13.699057  25.389392  33.295213  15.200103  133.877894
0.753227  0.000000  0.000000  0.000000  -13.960579  14.715279  9.359268  56.744396  10.342275  12.777025  13.699057  25.389392  33.295213  15.200103  133.877894
0.753294  0.000000  0.000000  0.000000  -13.960579  14.715279  11.990847  56.978475  8.138598  11.319611  13.699057  25.389392  33.295213  15.200103  133.877894
0.753362  0.000000  0.000000  0.000000  -13.960579  14.715279  14.622426  57.155036  5.929782  9.878164  13.699057  25.389392  33.295213  15.200103  133.877894
0.753429  0.000000  0.000000  0.000000  -13.960579  14.715279  17.254005  57.275304  3.717269  8.448224  13.699057  25.389392  33.295213  15.200103  133.877894
0.753497  0.000000  0.000000  0.000000  -13.960579  14.715279  19.885584  57.340104  1.502464  7.025452  13.699057  25.389392  33.295213  15.200103  133.877894
0.753564  0.000000  0.000000  0.000000  -13.960579  14.715279  22.517163  57.349885  -0.713278  5.605559  13.699057  25.389392  33.295213  15.200103  133.877894
0.753632  0.000000  0.000000  0.000000  -13.960579  14.715279  25.148742  57.304714  -2.928559  4.184301  13.699057  25.389392  33.295213  15.200103  133.877894
0.753700  0.000000  0.000000  0.000000  -13.960579  14.715279  27.780321  57.204279  -5.142047  2.757407  13.699057  25.389392  33.295213  15.200103  133.877894
0.753767  0.000000  0.000000  0.000000  -13.960579  14.715279  30.411900  57.047889  -7.352342  1.320559  13.699057  25.389392  33.295213  15.200103  133.877894
0.753835  0.000000  0.000000  0.000000  -13.960579  14.715279  33.043479  56.834457  -9.558013  -0.130647  13.699057  25.389392  33.295213  15.200103  133.877894
0.753902  0.000000  0.000000  0.000000  -13.960579  14.715279  35.675058  56.562506  -11.757590  -1.600774  13.699057  25.389392  33.295213  15.200103  133.877894
0.753970  0.000000  0.000000  0.000000  -13.960579  14.715279  38.306637  56.230119  -13.949521  -3.094552  13.699057  25.389392  33.295213  15.200103  133.877894
0.754037  0.000000  0.000000  0.000000  -13.960579  14.715279  40.938216  55.834950  -16.132169  -4.616944  13.699057  25.389392  33.295213  15.200103  133.877894
0.754105  0.000000  0.000000  0.000000  -13.930799  4.770072  -10.754787  38.450236  8.429704  -1.488872  -12.500403  31.211314  9.836800  12.138218  122.259930
0.754173  0.000000  0.000000  0.000000  -13.930799  4.770072  -8.123208  38.725079  6.788178  -3.564062  -12.500403  31.211314  9.836800  12.138218  122.259930
0.754240  0.000000  0.000000  0.000000  -13.930799  4.770072  -5.491629  38.939235  5.137893  -5.625110  -12.500403  31.211314  9.836800  12.138218  122.259930
0.754308  0.000000  0.000000  0.000000  -13.930799  4.770072  -2.860050  39.093335  3.481029  -7.675487  -12.500403  31.211314  9.836800  12.138218  122.259930
0.754375  0.000000  0.000000  0.000000  -13.930799  4.770072  -0.228471  39.187838  1.819733  -9.718652  -12.500403  31.211314  9.836800  12.138218  122.259930
0.754443  0.000000  0.000000  0.000000  -13.930799  4.770072  2.403108  39.223008  0.156129  -11.758054  -12.500403  31.211314  9.836800  12.138218  122.259930
0.754510  0.000000  0.000000  0.000000  -13.930799  4.770072  5.034687  39.198957  -1.507672  -13.797132  -12.500403  31.211314  9.836800  12.138218  122.259930
0.754578  0.000000  0.000000  0.000000  -13.930799  4.770072  7.666266  39.115604  -3.169562  -15.839329  -12.500403  31.211314  9.836800  12.138218  122.259930
0.754646  0.000000  0.000000  0.000000  -13.930799  4.770072  10.297845  38.972706  -4.827421  -17.888083  -12.500403  31.211314  9.836800  12.138218  122.259930
0.754713  0.000000  0.000000  0.000000  -13.930799  4.770072  12.929424  38.769865  -6.479107  -19.946869  -12.500403  31.211314  9.836800  12.138218  122.259930
0.754781  0.000000  0.000000  0.000000  -13.930799  4.770072  15.561002  38.506467  -8.122443  -22.019140  -12.500403  31.211314  9.836800  12.138218  122.259930
0.754848  0.000000  0.000000  0.000000  -13.930799  4.770072  18.192581  38.181774  -9.755216  -24.108391  -12.500403  31.211314  9.836800  12.138218  122.259930
0.754916  0.000000  0.000000  0.000000  -13.930799  4.770072  20.824160  37.794864  -11.375141  -26.218135  -12.500403  31.211314  9.836800  12.138218  122.259930
0.754983  0.000000  0.000000  0.000000  -13.930799  4.770072  23.455739  37.344669  -12.979876  -28.351905  -12.500403  31.211314  9.836800  12.138218  122.259930
